<svg width="100%" min-height="0" viewBox="0 0 1205 366" fill="none"
  xmlns="http://www.w3.org/2000/svg">
  <g id="text ver 2.0">
    <path id="Vector" d="M264.57 124.683C259.319 122.336 254.593 118.96 250.67 114.753C246.739 110.494 243.66 105.521 241.6 100.103C241.06 98.6733 240.6 97.2333 240.19 95.7733H215.84C216.672 100.141 217.925 104.417 219.58 108.543C222.744 116.493 227.472 123.727 233.484 129.815C239.496 135.902 246.67 140.721 254.58 143.983C259.291 145.932 264.205 147.347 269.23 148.203V126.393C267.647 125.909 266.091 125.338 264.57 124.683V124.683Z" fill="#6388C5" />
    <path id="s5" d="M322.49 100.373C320.477 105.755 317.445 110.699 313.56 114.933C309.704 119.091 305.034 122.41 299.84 124.683C297.068 125.888 294.18 126.803 291.22 127.413V148.693C306.066 146.837 319.859 140.051 330.39 129.423C336.421 123.332 341.18 116.101 344.39 108.153C345.972 104.147 347.181 100.002 348 95.7733H324C323.576 97.3314 323.072 98.8668 322.49 100.373Z" fill="#6388C5" />
    <path id="Vector_2" d="M299.52 40.3433C304.78 42.7063 309.508 46.1077 313.42 50.3433C317.359 54.585 320.439 59.5499 322.49 64.9633C323.695 68.1993 324.566 71.5501 325.09 74.9633H348.9C348.226 68.6885 346.698 62.535 344.36 56.6733C341.194 48.721 336.466 41.4845 330.454 35.392C324.442 29.2995 317.269 24.4748 309.36 21.2033C303.559 18.7874 297.456 17.1725 291.22 16.4033V37.5633C294.073 38.2072 296.854 39.1387 299.52 40.3433V40.3433Z" fill="#6388C5" />
    <path id="s4" d="M241.6 64.5633C243.623 59.1861 246.654 54.2444 250.53 50.0033C255.646 44.5754 262.087 40.574 269.22 38.3933V17.0033C264.316 17.8903 259.524 19.3121 254.93 21.2433C246.943 24.634 239.689 29.5412 233.57 35.6933C227.542 41.7874 222.784 49.017 219.57 56.9633C217.276 62.7128 215.759 68.7427 215.06 74.8933H238.93C239.454 71.3655 240.349 67.9029 241.6 64.5633V64.5633Z" fill="#6388C5" />
    <path id="s7" d="M459.5 147.023H486.35L475.92 132.403H449.17L459.5 147.023Z" fill="#6388C5" />
    <path id="Vector_3" d="M451.92 76.0833C447.12 80.03 440.657 82.0033 432.53 82.0033H399.29V74.8933H376.92V147.003H399.29V102.003H427.75L433.63 110.333H460.24L451.56 98.1533C455.928 97.029 460.115 95.2953 464 93.0033C467.659 90.7935 470.924 87.9883 473.66 84.7033C476.088 81.7579 478.048 78.4558 479.47 74.9133H453.25C452.83 75.3291 452.386 75.7198 451.92 76.0833V76.0833Z" fill="#6388C5" />
    <path id="s6" d="M399.29 38.5533H432.35C440.77 38.5533 447.43 40.3633 452.11 43.9933C454.995 46.2564 457.094 49.3702 458.11 52.8933H481.9C481.42 49.1509 480.445 45.4889 479 42.0033C476.871 37.0339 473.619 32.6253 469.5 29.1233C465.051 25.4306 459.906 22.6693 454.37 21.0033C447.891 19.0233 441.144 18.0585 434.37 18.1433H376.92V52.9433H399.29V38.5533Z" fill="#6388C5" />
    <path id="s8" d="M604.85 18.0933H594.43V39.0933H604.85V18.0933Z" fill="#6388C5" />
    <path id="Vector_4" d="M541.08 147.023H563.91L564.03 39.0933H574.51V18.0933H500.25V39.0933H541.08V147.023Z" fill="#6388C5" />
    <path id="s10" d="M620.93 109.083C623.954 117.01 628.592 124.223 634.55 130.263C640.508 136.304 647.655 141.04 655.54 144.173C658.751 145.446 662.05 146.485 665.41 147.283V125.113C660.352 122.863 655.793 119.626 652 115.593C648.041 111.361 644.979 106.371 643 100.923C642.283 98.9249 641.688 96.8844 641.22 94.8134H617.08C617.858 99.6922 619.148 104.475 620.93 109.083V109.083Z" fill="#6388C5" />
    <path id="Vector_5" d="M640.44 74.8933C640.964 71.4339 641.859 68.0409 643.11 64.7733C645.16 59.409 648.173 54.4644 652 50.1833C655.699 46.0192 660.212 42.6568 665.26 40.3033L665.45 40.2133V18.0033C662.179 18.8475 658.977 19.9373 655.87 21.2633C647.974 24.6031 640.822 29.4842 634.835 35.6209C628.848 41.7577 624.144 49.0269 621 57.0033C618.714 62.7522 617.214 68.7833 616.54 74.9333L640.44 74.8933Z" fill="#6388C5" />
    <path id="s9" d="M692.85 37.7133C696.028 38.339 699.138 39.2665 702.14 40.4833C704.978 41.6528 707.691 43.1034 710.24 44.8133C712.868 46.5642 715.39 48.4709 717.79 50.5233L732.17 33.3833C728.959 30.641 725.538 28.1534 721.94 25.9433C718.415 23.7727 714.688 21.9507 710.81 20.5033C706.655 18.9701 702.367 17.8284 698 17.0933C694.494 16.5245 690.958 16.1605 687.41 16.0033V37.0033C689.23 37.1233 691.05 37.3733 692.85 37.7133Z" fill="#6388C5" />
    <path id="Vector_6" d="M699.2 147.663C704.15 146.683 708.995 145.233 713.67 143.333C718.02 141.557 722.206 139.402 726.18 136.893C729.85 134.552 733.358 131.966 736.68 129.153V75.0033H681.8V94.7333H714.8V119.003C710.588 122.127 705.892 124.539 700.9 126.143C696.518 127.572 691.971 128.435 687.37 128.713V149.143C691.344 148.938 695.298 148.443 699.2 147.663V147.663Z" fill="#6388C5" />
    <path id="Vector_7" d="M755.1 147.023H778.35L782.61 136.963H759.5L755.1 147.023Z" fill="#6388C5" />
    <path id="Vector_8" d="M821.94 44.2632L830.88 64.9432H853.63L832.78 17.1932H811.8L790.95 64.9432H813.08L821.94 44.2632Z" fill="#6388C5" />
    <path id="s11" d="M791.54 115.893H852.51L856.74 125.963H880.27L862.33 84.8533H839.49L844.23 95.8133H799.85L804.54 84.8533H782.25L764.3 125.963H787.27L791.54 115.893Z" fill="#6388C5" />
    <path id="s12" d="M889.47 147.023L885.08 136.963H861.36L865.59 147.023H889.47Z" fill="#6388C5" />
    <path id="Vector_9" d="M974.7 37.7133C977.882 38.3343 980.997 39.2619 984 40.4833C986.843 41.6547 989.563 43.1051 992.12 44.8133C994.74 46.5756 997.261 48.4819 999.67 50.5233L1014 33.3833C1010.8 30.636 1007.39 28.1481 1003.8 25.9433C1000.27 23.7765 996.546 21.9547 992.67 20.5033C988.521 18.9637 984.235 17.8219 979.87 17.0933C976.394 16.5298 972.888 16.1659 969.37 16.0033V37.0033C971.163 37.1433 972.94 37.38 974.7 37.7133Z" fill="#6388C5" />
    <path id="s14" d="M981.08 147.663C990.666 145.765 999.819 142.113 1008.08 136.893C1011.82 134.56 1015.4 131.974 1018.79 129.153V75.0033H963.79V94.7333H996.79V119.003C992.573 122.12 987.879 124.531 982.89 126.143C978.533 127.563 974.014 128.423 969.44 128.703V149.143C973.35 148.927 977.24 148.432 981.08 147.663V147.663Z" fill="#6388C5" />
    <path id="Vector_10" d="M902.79 109.083C905.818 117.011 910.459 124.224 916.421 130.264C922.382 136.305 929.533 141.041 937.42 144.173C940.672 145.461 944.014 146.507 947.42 147.303V125.153C942.309 122.916 937.706 119.664 933.89 115.593C929.943 111.363 926.901 106.371 924.95 100.923C924.233 98.9249 923.638 96.8844 923.17 94.8134H898.93C899.716 99.6916 901.009 104.474 902.79 109.083V109.083Z" fill="#6388C5" />
    <path id="s13" d="M925 64.7733C927.029 59.4078 930.029 54.4619 933.85 50.1833C937.549 46.0278 942.053 42.6666 947.09 40.3033L947.38 40.1733V18.0033C944.074 18.848 940.838 19.9445 937.7 21.2833C929.815 24.6263 922.674 29.5068 916.696 35.6397C910.717 41.7727 906.021 49.0352 902.88 57.0033C900.592 62.7512 899.095 68.7829 898.43 74.9333H922.32C922.844 71.4599 923.743 68.0534 925 64.7733V64.7733Z" fill="#6388C5" />
    <path id="Vector_11" d="M1085.18 126.573H1070.57V92.1433H1135.23V71.7333H1070.57V38.5533H1108.97V18.0933H1048.09V146.983H1085.18V126.573Z" fill="#6388C5" />
    <path id="s16" d="M1143.48 18.0933H1128.89V38.5533H1143.48V18.0933Z" fill="#6388C5" />
    <path id="s15" d="M1144.43 126.573H1105.1V146.983H1144.43V126.573Z" fill="#6388C5" />
    <path id="s18" d="M108.02 197.463L114.76 213.073H134.08L117.16 174.423H99.28L82.4 213.073H101.32L108.02 197.463Z" fill="#2E3656" />
    <path id="Vector_12" d="M82.09 258.423H133.98L137.27 266.253H157.36L140.57 227.913H121.17L126.97 241.353H89.19L94.95 227.913H75.91L59.16 266.253H78.74L82.09 258.423Z" fill="#2E3656" />
    <path id="s19" d="M145.12 284.913H165.53L162.17 277.253H141.9L145.12 284.913Z" fill="#2E3656" />
    <path id="s17" d="M51 284.913H70.75L74.03 277.253H54.35L51 284.913Z" fill="#2E3656" />
    <path id="s20" d="M272.6 175.283H253.39V200.893H272.6V175.283Z" fill="#2E3656" />
    <path id="s21" d="M205.15 261.003C200.217 255.67 197.753 247.883 197.76 237.643V175.283H178.76V238.563C178.603 245.67 179.7 252.748 182 259.473C183.972 265.147 187.179 270.311 191.39 274.593C195.558 278.69 200.596 281.794 206.13 283.673C208.745 284.55 211.418 285.241 214.13 285.743V267.083C210.705 265.783 207.63 263.701 205.15 261.003Z" fill="#2E3656" />
    <path id="Vector_13" d="M272.6 237.493V220.493H253.39V238.443C253.443 248.597 250.97 256.227 245.97 261.333C243.246 264.114 239.891 266.196 236.19 267.403V285.853C239.154 285.347 242.075 284.618 244.93 283.673C250.516 281.773 255.585 278.603 259.74 274.413C263.987 270.015 267.229 264.747 269.24 258.973C271.606 252.065 272.743 244.795 272.6 237.493Z" fill="#2E3656" />
    <path id="s22" d="M380.26 175.283H373.86V193.153H380.26V175.283Z" fill="#2E3656" />
    <path id="Vector_14" d="M291.22 175.283V193.153H326.03V284.913H345.47V193.153H351.86V175.283H291.22Z" fill="#2E3656" />
    <path id="s27" d="M635.72 261.283H616.6V284.913H635.72V261.283Z" fill="#2E3656" />
    <path id="s25" d="M547.02 241.363H527.9V284.913H547.02V241.363Z" fill="#2E3656" />
    <path id="Vector_15" d="M711.42 197.463L718.3 213.393H737.65L720.63 174.493H702.76L685.76 213.393H704.59L711.42 197.463Z" fill="#2E3656" />
    <path id="s28" d="M685.57 258.493H737.52L740.75 266.253H760.77L744.14 228.243H724.72L730.38 241.353H692.62L698.23 228.243H679.28L662.68 266.253H682.24L685.57 258.493Z" fill="#2E3656" />
    <path id="Vector_16" d="M654.5 284.983H674.23L677.53 277.253H657.87L654.5 284.983Z" fill="#2E3656" />
    <path id="s29" d="M748.52 284.913H768.93L765.58 277.253H745.33L748.52 284.913Z" fill="#2E3656" />
    <path id="s30" d="M772.18 175.283H765.8V193.153H772.18V175.283Z" fill="#2E3656" />
    <path id="Vector_17" d="M854.82 175.283H794.19V193.153H800.59V284.913H820.03V193.153H854.82V175.283Z" fill="#2E3656" />
    <path id="s31" d="M895.42 175.283H876.3V199.613H895.42V175.283Z" fill="#2E3656" />
    <path id="Vector_18" d="M895.42 220.493H876.3V284.913H895.42V220.493Z" fill="#2E3656" />
    <path id="Vector_19" d="M943 214.923C944.702 210.341 947.284 206.135 950.6 202.543C953.881 199.003 957.857 196.177 962.28 194.243C963.585 193.684 964.92 193.2 966.28 192.793V174.263C954.816 176.356 944.269 181.912 936.06 190.183C930.919 195.378 926.87 201.55 924.15 208.333C922.493 212.476 921.312 216.794 920.63 221.203H941.18C941.629 219.067 942.237 216.968 943 214.923V214.923Z" fill="#2E3656" />
    <path id="s23" d="M415.7 214.923C417.402 210.341 419.984 206.135 423.3 202.543C426.581 199.003 430.557 196.177 434.98 194.243C436.285 193.684 437.62 193.2 438.98 192.793V174.263C427.516 176.356 416.969 181.912 408.76 190.183C403.619 195.378 399.57 201.55 396.85 208.333C395.193 212.476 394.012 216.794 393.33 221.203H413.88C414.329 219.067 414.937 216.968 415.7 214.923V214.923Z" fill="#2E3656" />
    <path id="s32" d="M992.28 194.243C996.752 196.245 1000.78 199.121 1004.12 202.703C1007.45 206.328 1010.05 210.562 1011.78 215.173V215.243C1012.51 217.198 1013.09 219.204 1013.53 221.243H1034C1033.32 216.705 1032.11 212.261 1030.4 208.003C1027.72 201.235 1023.7 195.077 1018.58 189.896C1013.47 184.714 1007.36 180.615 1000.63 177.843C996.658 176.192 992.516 174.981 988.28 174.233V192.763C989.639 193.183 990.975 193.677 992.28 194.243V194.243Z" fill="#2E3656" />
    <path id="Vector_20" d="M464.98 194.243C469.452 196.245 473.478 199.121 476.82 202.703C480.153 206.328 482.754 210.562 484.48 215.173V215.243C485.208 217.198 485.792 219.204 486.23 221.243H506.7C506.021 216.705 504.813 212.261 503.1 208.003C500.416 201.235 496.397 195.077 491.283 189.896C486.168 184.714 480.063 180.615 473.33 177.843C469.358 176.192 465.216 174.981 460.98 174.233V192.763C462.34 193.183 463.675 193.677 464.98 194.243V194.243Z" fill="#2E3656" />
    <path id="Vector_21" d="M1011.78 245.473C1010.08 250.057 1007.5 254.265 1004.19 257.863C1000.9 261.402 996.929 264.233 992.51 266.183C991.129 266.762 989.717 267.263 988.28 267.683V286.003C999.787 283.936 1010.38 278.374 1018.61 270.073C1023.75 264.876 1027.8 258.706 1030.52 251.923H1030.4C1031.84 248.334 1032.92 244.613 1033.63 240.813H1013.23C1012.83 242.393 1012.35 243.948 1011.78 245.473V245.473Z" fill="#2E3656" />
    <path id="s24" d="M484.48 245.913C482.778 250.496 480.2 254.705 476.89 258.303C473.603 261.842 469.629 264.673 465.21 266.623C463.829 267.202 462.417 267.703 460.98 268.123V286.443C472.487 284.376 483.077 278.814 491.31 270.513C496.449 265.316 500.498 259.146 503.22 252.363H503.1C504.537 248.774 505.619 245.053 506.33 241.253H485.93C485.535 242.833 485.051 244.388 484.48 245.913V245.913Z" fill="#2E3656" />
    <path id="s33" d="M950.66 257.633C947.331 254.013 944.73 249.787 943 245.183C942.466 243.748 942.009 242.286 941.63 240.803H920.88C921.581 244.708 922.676 248.531 924.15 252.213C926.854 258.923 930.846 265.038 935.9 270.213C941.055 275.442 947.211 279.577 954 282.373C957.948 284.029 962.066 285.247 966.28 286.003V267.393C960.339 265.496 954.969 262.141 950.66 257.633Z" fill="#2E3656" />
    <path id="Vector_22" d="M423.36 258.073C420.031 254.453 417.431 250.226 415.7 245.623C415.167 244.188 414.709 242.726 414.33 241.243H393.58C394.281 245.148 395.377 248.97 396.85 252.653C399.554 259.363 403.546 265.478 408.6 270.653C413.755 275.882 419.911 280.017 426.7 282.813C430.648 284.469 434.766 285.687 438.98 286.443V267.833C433.04 265.936 427.669 262.581 423.36 258.073Z" fill="#2E3656" />
    <path id="s36" d="M1077.24 263.363H1058.12V284.913H1077.24V263.363Z" fill="#2E3656" />
    <path id="s35" d="M1134.59 251.143L1121.19 233.813V263.693L1137.61 284.913H1153.71V220.493H1134.59V251.143Z" fill="#2E3656" />
    <path id="Vector_23" d="M1153.71 175.283H1134.59V198.493H1153.71V175.283Z" fill="#2E3656" />
    <path id="s34" d="M1075.94 175.283H1058.12V241.363H1077.24V206.873L1099.19 235.253V205.353L1075.94 175.283Z" fill="#2E3656" />
    <path id="Vector_24" d="M94.63 349.733H98.54V334.653H117.27V331.113H98.54V318.753H119.49L119.58 315.143H94.63V349.733Z" fill="#2E3656" />
    <path id="Vector_25" d="M145.89 314.893L130 349.733H134L138.1 340.663H157L161.06 349.733H165.25L149.56 314.893H145.89ZM139.65 337.083L147.57 319.483L155.57 337.083H139.65Z" fill="#2E3656" />
    <path id="Vector_26" d="M202.16 334.083C199.625 332.262 196.707 331.045 193.63 330.523C192.038 330.222 190.471 329.804 188.94 329.273C187.91 328.924 186.94 328.422 186.06 327.783C185.432 327.313 184.939 326.685 184.63 325.963C184.35 325.25 184.211 324.489 184.22 323.723C184.2 322.935 184.379 322.154 184.74 321.453C185.093 320.756 185.594 320.145 186.21 319.663C186.898 319.15 187.664 318.751 188.48 318.483C189.451 318.18 190.463 318.025 191.48 318.023C193.23 318.03 194.965 318.338 196.61 318.933C198.381 319.609 200.027 320.576 201.48 321.793L203.75 318.793C202.088 317.464 200.229 316.401 198.24 315.643C196.1 314.917 193.848 314.579 191.59 314.643C190.05 314.622 188.518 314.865 187.06 315.363C185.747 315.81 184.525 316.488 183.45 317.363C182.442 318.185 181.631 319.223 181.077 320.399C180.523 321.576 180.24 322.863 180.25 324.163C180.227 325.45 180.462 326.729 180.94 327.923C181.429 328.997 182.158 329.945 183.07 330.693C184.163 331.564 185.398 332.241 186.72 332.693C188.403 333.323 190.131 333.825 191.89 334.193C193.43 334.502 194.947 334.916 196.43 335.433C197.413 335.762 198.338 336.245 199.17 336.863C199.768 337.323 200.243 337.924 200.55 338.613C200.839 339.334 200.972 340.108 200.94 340.883C200.967 341.716 200.792 342.543 200.43 343.293C200.061 344.042 199.519 344.694 198.85 345.193C197.211 346.347 195.233 346.921 193.23 346.823C191.043 346.873 188.87 346.464 186.85 345.623C184.84 344.694 182.99 343.452 181.37 341.943L179 344.743C180.912 346.504 183.124 347.91 185.53 348.893C187.959 349.806 190.536 350.26 193.13 350.233C194.737 350.252 196.337 350.016 197.87 349.533C199.231 349.121 200.495 348.441 201.59 347.533C202.607 346.68 203.434 345.624 204.02 344.433C204.619 343.165 204.92 341.776 204.9 340.373C204.953 339.182 204.734 337.995 204.259 336.902C203.784 335.808 203.066 334.838 202.16 334.063V334.083Z" fill="#2E3656" />
    <path id="Vector_27" d="M219.53 318.753H231.14V349.733H235.04L235.13 318.753H246.75V315.143H219.53V318.753Z" fill="#2E3656" />
    <path id="Vector_28" d="M267.79 334.063H286.68V330.503H267.79V318.703H288.91L288.84 315.143H263.89V349.713H289.16V346.153H267.79V334.063Z" fill="#2E3656" />
    <path id="Vector_29" d="M328.64 334.383C329.749 333.849 330.762 333.136 331.64 332.273C332.477 331.427 333.139 330.425 333.59 329.323C334.059 328.077 334.29 326.754 334.27 325.423C334.291 323.969 333.991 322.528 333.39 321.203C332.802 319.955 331.94 318.854 330.87 317.983C329.71 317.036 328.379 316.32 326.95 315.873C325.272 315.376 323.53 315.13 321.78 315.143H306.89V349.733H310.79V336.283H320.68L330.68 349.733L335.49 349.683L324.86 335.563C326.17 335.353 327.443 334.956 328.64 334.383ZM310.79 332.833V318.753H321.5C323.818 318.604 326.119 319.242 328.03 320.563C328.799 321.162 329.413 321.937 329.82 322.823C330.226 323.706 330.411 324.673 330.36 325.643C330.374 326.68 330.152 327.706 329.71 328.643C329.265 329.528 328.63 330.303 327.85 330.913C326.992 331.544 326.031 332.021 325.01 332.323C323.855 332.666 322.655 332.832 321.45 332.813L310.79 332.833Z" fill="#2E3656" />
    <path id="Vector_30" d="M355.95 344.543H351.41V349.733H355.95V344.543Z" fill="#2E3656" />
    <path id="Vector_31" d="M403.12 334.063H421.99V330.503H403.12V318.703H424.21L424.14 315.143H399.19V349.713H424.55V346.153H403.12V334.063Z" fill="#2E3656" />
    <path id="Vector_32" d="M455 314.893L439.24 349.733H443.24L447.35 340.663H466.17L470.23 349.733H474.42L458.55 314.893H455ZM448.83 337.083L456.77 319.483L464.71 337.083H448.83Z" fill="#2E3656" />
    <path id="Vector_33" d="M511.37 334.083C508.835 332.262 505.917 331.045 502.84 330.523C501.246 330.216 499.676 329.798 498.14 329.273C497.118 328.928 496.156 328.426 495.29 327.783C494.649 327.321 494.147 326.691 493.84 325.963C493.591 325.298 493.459 324.594 493.45 323.883C493.44 323.096 493.618 322.318 493.97 321.613C494.323 320.913 494.829 320.302 495.45 319.823C496.133 319.308 496.897 318.909 497.71 318.643C498.68 318.336 499.692 318.18 500.71 318.183C502.453 318.19 504.182 318.498 505.82 319.093C507.593 319.766 509.239 320.733 510.69 321.953L512.96 318.953C511.352 317.63 509.547 316.567 507.61 315.803C505.47 315.077 503.218 314.739 500.96 314.803C499.419 314.776 497.886 315.02 496.43 315.523C495.108 315.963 493.878 316.641 492.8 317.523C491.792 318.332 490.978 319.358 490.42 320.523C489.87 321.704 489.59 322.991 489.6 324.293C489.568 325.58 489.8 326.859 490.28 328.053C490.749 329.058 491.431 329.949 492.28 330.663C493.372 331.536 494.607 332.213 495.93 332.663C497.613 333.293 499.341 333.795 501.1 334.163C502.637 334.471 504.151 334.885 505.63 335.403C506.619 335.726 507.548 336.209 508.38 336.833C508.983 337.288 509.459 337.891 509.76 338.583C510.05 339.304 510.19 340.077 510.17 340.853C510.194 341.689 510.015 342.518 509.648 343.269C509.28 344.02 508.735 344.67 508.06 345.163C506.43 346.322 504.457 346.896 502.46 346.793C500.276 346.844 498.106 346.435 496.09 345.593C494.075 344.667 492.222 343.425 490.6 341.913L488.17 344.773C490.091 346.537 492.313 347.943 494.73 348.923C497.148 349.837 499.715 350.291 502.3 350.263C503.907 350.282 505.507 350.046 507.04 349.563C508.4 349.148 509.664 348.469 510.76 347.563C511.819 346.699 512.667 345.604 513.24 344.363C513.813 343.109 514.097 341.742 514.07 340.363C514.123 339.172 513.904 337.985 513.429 336.892C512.954 335.798 512.236 334.828 511.33 334.053L511.37 334.083Z" fill="#2E3656" />
    <path id="Vector_34" d="M536.2 315.143H532.3V349.733H536.2V315.143Z" fill="#2E3656" />
    <path id="Vector_35" d="M560.1 334.063H579V330.503H560.1V318.703H581.22L581.15 315.143H556.2V349.713H581.47V346.153H560.1V334.063Z" fill="#2E3656" />
    <path id="Vector_36" d="M620.93 334.423C622.043 333.896 623.058 333.183 623.93 332.313C624.789 331.475 625.469 330.472 625.93 329.363C626.4 328.118 626.631 326.794 626.61 325.463C626.63 324.012 626.33 322.575 625.73 321.253C625.15 319.986 624.288 318.867 623.21 317.983C622.05 317.036 620.719 316.32 619.29 315.873C617.612 315.376 615.87 315.13 614.12 315.143H599.18V349.733H603.1V336.283H613L623 349.733H627.78L617.17 335.603C618.474 335.396 619.741 334.999 620.93 334.423V334.423ZM603.1 332.833V318.753H613.81C616.128 318.604 618.429 319.242 620.34 320.563C621.107 321.161 621.72 321.935 622.128 322.819C622.535 323.703 622.724 324.671 622.68 325.643C622.691 326.68 622.465 327.707 622.02 328.643C621.575 329.528 620.94 330.303 620.16 330.913C619.302 331.544 618.341 332.021 617.32 332.323C616.165 332.666 614.965 332.832 613.76 332.813L603.1 332.833Z" fill="#2E3656" />
    <path id="Vector_37" d="M648.26 344.543H643.72V349.733H648.26V344.543Z" fill="#2E3656" />
    <path id="Vector_38" d="M704.37 314.893L688.6 349.733H692.6L696.7 340.663H715.48L719.54 349.733H723.74L708 314.893H704.37ZM698.2 337.083L706.09 319.483L713.96 337.083H698.2Z" fill="#2E3656" />
    <path id="Vector_39" d="M763.56 335.263C763.68 336.805 763.49 338.356 763 339.823C762.522 341.292 761.757 342.652 760.75 343.823C759.746 344.794 758.553 345.549 757.246 346.041C755.939 346.532 754.545 346.751 753.15 346.683C751.714 346.772 750.275 346.551 748.932 346.033C747.59 345.515 746.375 344.714 745.37 343.683C743.357 341.272 742.35 338.178 742.56 335.043V315.143H738.66V335.263C738.615 337.458 738.954 339.644 739.66 341.723C740.278 343.497 741.286 345.11 742.61 346.443C743.892 347.722 745.438 348.705 747.14 349.323C749.022 349.981 751.006 350.303 753 350.273C755.013 350.303 757.017 349.982 758.92 349.323C760.625 348.701 762.172 347.711 763.45 346.423C764.78 345.059 765.803 343.426 766.45 341.633C767.161 339.476 767.499 337.214 767.45 334.943V315.143H763.53L763.56 335.263Z" fill="#2E3656" />
    <path id="Vector_40" d="M784.13 318.753H795.74V349.733H799.64L799.73 318.753H811.34V315.143H784.13V318.753Z" fill="#2E3656" />
    <path id="Vector_41" d="M855.16 319.913C853.591 318.246 851.699 316.916 849.6 316.003C847.334 315.027 844.887 314.54 842.42 314.573C840.024 314.545 837.648 315.012 835.442 315.947C833.235 316.881 831.246 318.262 829.6 320.003C826.421 323.407 824.677 327.906 824.73 332.563C824.714 334.888 825.135 337.194 825.97 339.363C826.738 341.501 827.917 343.468 829.44 345.153C831.017 346.796 832.907 348.105 835 349.003C837.268 349.984 839.719 350.472 842.19 350.433C844.668 350.482 847.128 349.994 849.4 349.003C851.506 348.076 853.408 346.744 855 345.083C856.55 343.419 857.775 341.479 858.61 339.363L858.74 339.203C860.4 334.822 860.4 329.985 858.74 325.603C857.931 323.49 856.715 321.557 855.16 319.913ZM854.82 338.123C854.179 339.793 853.233 341.33 852.03 342.653C850.825 343.942 849.364 344.964 847.74 345.653C846.02 346.399 844.165 346.783 842.29 346.783C840.415 346.783 838.56 346.399 836.84 345.653C835.203 344.934 833.727 343.893 832.5 342.593C831.27 341.282 830.309 339.743 829.67 338.063C828.991 336.282 828.651 334.389 828.67 332.483C828.645 330.583 828.985 328.696 829.67 326.923C830.309 325.249 831.255 323.71 832.46 322.383C833.658 321.091 835.117 320.068 836.74 319.383C838.456 318.625 840.314 318.243 842.19 318.263C844.072 318.238 845.936 318.627 847.65 319.403C849.285 320.125 850.761 321.165 851.99 322.463C853.211 323.785 854.171 325.325 854.82 327.003V326.883C855.51 328.693 855.849 330.617 855.82 332.553C855.841 334.456 855.502 336.346 854.82 338.123V338.123Z" fill="#2E3656" />
    <path id="Vector_42" d="M894.69 334.013L882.08 315.143H878.13V349.733H881.83V321.773L894.44 340.253H894.62L907.35 321.723V349.733H911.25V315.143H907.3L894.69 334.013Z" fill="#2E3656" />
    <path id="Vector_43" d="M943.72 314.893L927.85 349.733H931.85L935.95 340.663H954.78L958.84 349.733H963L947.36 314.893H943.72ZM937.49 337.083L945.38 319.483L953.38 337.083H937.49Z" fill="#2E3656" />
    <path id="Vector_44" d="M972.8 318.753H984.43V349.733H988.33L988.4 318.753H1000.01V315.143H972.8V318.753Z" fill="#2E3656" />
    <path id="Vector_45" d="M1021.01 334.063H1039.91V330.503H1021.01V318.703H1042.2L1042.13 315.143H1017.18V349.713H1042.38V346.153H1021.01V334.063Z" fill="#2E3656" />
    <path id="Vector_46" d="M1085.47 320.093C1083.78 318.5 1081.79 317.259 1079.62 316.443C1077.25 315.554 1074.73 315.113 1072.2 315.143H1060.2V349.843H1072.2C1074.74 349.874 1077.25 349.423 1079.62 348.513C1081.79 347.684 1083.78 346.441 1085.47 344.853C1087.1 343.305 1088.38 341.426 1089.23 339.343V339.163C1091 334.799 1091 329.917 1089.23 325.553C1088.37 323.492 1087.09 321.632 1085.47 320.093V320.093ZM1085.56 337.893C1084.9 339.516 1083.92 340.989 1082.68 342.223C1081.39 343.493 1079.84 344.475 1078.14 345.103C1076.25 345.813 1074.24 346.153 1072.22 346.103H1064.1V318.863H1072.18C1074.2 318.832 1076.21 319.196 1078.1 319.933C1079.79 320.579 1081.33 321.566 1082.63 322.833C1083.88 324.081 1084.86 325.572 1085.51 327.213V327.103C1086.88 330.57 1086.88 334.426 1085.51 337.893H1085.56Z" fill="#2E3656" />
    <path id="Vector_47" d="M1110.19 344.543H1105.65V349.733H1110.19V344.543Z" fill="#2E3656" />
    <path id="s1" d="M82.86 94.8134H60.41V147.023H82.86V94.8134Z" fill="#6388C5" />
    <path id="s3" d="M187.12 115.683H164.65V147.023H187.12V115.683Z" fill="#6388C5" />
    <path id="Vector_48" d="M164.21 54.9833V55.2133L164.37 54.9833H164.21Z" fill="#F5F5F5" />
    <path id="Vector_49" d="M164.29 54.5633H187.12V18.0933H162.99L123.75 79.0533L84.54 18.0933H60.41V74.8933H82.86V54.9533L123.21 115.343H123.94L164.21 55.2133V54.9833H164.29V54.5633Z" fill="#6388C5" />
    <path id="s2" d="M187.12 74.8933H164.65V95.7733H187.12V74.8933Z" fill="#6388C5" />
    <path id="s26" d="M616.6 220.493V241.363H635.72V220.493H626.22H616.6Z" fill="#2E3656" />
    <path id="Vector_50" d="M615.19 175.283L581.81 227.153L548.42 175.283H527.9V220.493H547.02V206.633L581.33 258.043H581.97L616.34 206.693V206.303H626.22H635.72V175.283H615.19Z" fill="#2E3656" />
  </g>

  <defs>
    <clipPath id="clip0_10_11">
      <rect width="1102.71" height="334.55" fill="white" />
    </clipPath>

    <style>
      :root {
        --aniDur: 0.75s;
      }

      #s1,
      #s2,
      #s3,
      #s4,
      #s5,
      #s6,
      #s7,
      #s8,
      #s9,
      #s10,
      #s11,
      #s12,
      #s13,
      #s14,
      #s15,
      #s16,
      #s17,
      #s18,
      #s19,
      #s20,
      #s21,
      #s22,
      #s23,
      #s24,
      #s25,
      #s26,
      #s27,
      #s28,
      #s29,
      #s30,
      #s31,
      #s32,
      #s33,
      #s34,
      #s35,
      #s36 {
        clip-path: polygon(0 0, 100% 0, 100% 0, 0 0);
        animation: partIn var(--aniDur) linear forwards;
      }

      @keyframes partIn {
        100% {
          clip-path: polygon(0 0, 100% 0, 100% 100%, 0 100%);
        }
      }

      #s2 {
        animation-delay: calc(var(--aniDur) * 0.2);
      }

      #s3 {
        animation-delay: calc(var(--aniDur) * 0.4);
      }

      #s4 {
        animation-delay: calc(var(--aniDur) * 0.6);
      }

      #s5 {
        animation-delay: calc(var(--aniDur) * 0.8);
      }

      #s6 {
        animation-delay: calc(var(--aniDur) * 1);
      }

      #s7 {
        animation-delay: calc(var(--aniDur) * 1.2);
      }

      #s8 {
        animation-delay: calc(var(--aniDur) * 1.4);
      }

      #s9 {
        animation-delay: calc(var(--aniDur) * 1.6);
      }

      #s10 {
        animation-delay: calc(var(--aniDur) * 1.8);
      }

      #s11 {
        animation-delay: calc(var(--aniDur) * 2);
      }

      #s12 {
        animation-delay: calc(var(--aniDur) * 2.2);
      }

      #s13 {
        animation-delay: calc(var(--aniDur) * 2.4);
      }
      #s14 {
        animation-delay: calc(var(--aniDur) * 2.6);
      }

      #s15 {
        animation-delay: calc(var(--aniDur) * 2.8);
      }

      #s16 {
        animation-delay: calc(var(--aniDur) * 3);
      }

      #s17 {
        animation-delay: calc(var(--aniDur) * 3.2);
      }

      #s18 {
        animation-delay: calc(var(--aniDur) * 3.4);
      }

      #s19 {
        animation-delay: calc(var(--aniDur) * 3.6);
      }

      #s20 {
        animation-delay: calc(var(--aniDur) * 3.8);
      }

      #s21 {
        animation-delay: calc(var(--aniDur) * 4);
      }

      #s22 {
        animation-delay: calc(var(--aniDur) * 4.2);
      }

      #s23 {
        animation-delay: calc(var(--aniDur) * 4.4);
      }

      #s24 {
        animation-delay: calc(var(--aniDur) * 4.6);
      }

      #s25 {
        animation-delay: calc(var(--aniDur) * 4.8);
      }
      #s26 {
        animation-delay: calc(var(--aniDur) * 5);
      }

      #s27 {
        animation-delay: calc(var(--aniDur) * 5.2);
      }

      #s28 {
        animation-delay: calc(var(--aniDur) * 5.4);
      }

      #s29 {
        animation-delay: calc(var(--aniDur) * 5.6);
      }

      #s30 {
        animation-delay: calc(var(--aniDur) * 5.8);
      }

      #s31 {
        animation-delay: calc(var(--aniDur) * 6);
      }

      #s32 {
        animation-delay: calc(var(--aniDur) * 6.2);
      }

      #s33 {
        animation-delay: calc(var(--aniDur) * 6.4);
      }

      #s34 {
        animation-delay: calc(var(--aniDur) * 6.6);
      }

      #s35 {
        animation-delay: calc(var(--aniDur) * 6.8);
      }

      #s36 {
        animation-delay: calc(var(--aniDur) * 7);
      }
    </style>
  </defs>


</svg>