<svg width="100%" min-height="0" viewBox="0 0 1103 335" fill="none"
    xmlns="http://www.w3.org/2000/svg">
    <g id="Text Ver" clip-path="url(#clip0_10_11)">
        <path id="Vector" d="M68.49 302.86H47.54V315.22H66.27V318.76H47.54V333.84H43.64V299.26H68.58L68.49 302.86Z" fill="#2E3656" />
        <path id="Vector_2" d="M114.21 333.84H110L106 324.77H87.13L83 333.84H79L94.89 299H98.56L114.21 333.84ZM96.57 303.59L88.65 321.19H104.53L96.57 303.59Z" fill="#2E3656" />
        <path id="Vector_3" d="M133.63 310.07C133.939 310.792 134.432 311.419 135.06 311.89C135.942 312.528 136.912 313.034 137.94 313.39C139.472 313.913 141.039 314.327 142.63 314.63C145.707 315.152 148.625 316.369 151.16 318.19C152.066 318.964 152.784 319.935 153.259 321.028C153.734 322.122 153.953 323.309 153.9 324.5C153.92 325.903 153.619 327.292 153.02 328.56C152.434 329.751 151.607 330.807 150.59 331.66C149.498 332.571 148.232 333.252 146.87 333.66C145.337 334.142 143.737 334.379 142.13 334.36C139.535 334.392 136.958 333.937 134.53 333.02C132.122 332.04 129.91 330.634 128 328.87L130.41 326.02C132.033 327.523 133.882 328.761 135.89 329.69C137.91 330.531 140.083 330.94 142.27 330.89C144.274 330.996 146.254 330.422 147.89 329.26C148.559 328.76 149.101 328.109 149.47 327.36C149.832 326.61 150.007 325.783 149.98 324.95C150.012 324.174 149.879 323.401 149.59 322.68C149.285 321.993 148.81 321.394 148.21 320.94C147.383 320.314 146.457 319.831 145.47 319.51C143.989 318.985 142.471 318.568 140.93 318.26C139.169 317.901 137.44 317.399 135.76 316.76C134.438 316.307 133.203 315.631 132.11 314.76C131.207 314.011 130.486 313.068 130 312C129.522 310.802 129.288 309.52 129.31 308.23C129.3 306.929 129.583 305.643 130.137 304.466C130.691 303.289 131.502 302.252 132.51 301.43C133.582 300.55 134.805 299.873 136.12 299.43C137.576 298.924 139.109 298.677 140.65 298.7C142.908 298.635 145.16 298.974 147.3 299.7C149.287 300.462 151.145 301.524 152.81 302.85L150.54 305.85C149.087 304.633 147.441 303.666 145.67 302.99C144.026 302.393 142.289 302.089 140.54 302.09C139.523 302.084 138.511 302.236 137.54 302.54C136.726 302.812 135.96 303.21 135.27 303.72C134.654 304.202 134.153 304.813 133.8 305.51C133.439 306.211 133.26 306.992 133.28 307.78C133.244 308.559 133.363 309.337 133.63 310.07V310.07Z" fill="#2E3656" />
        <path id="Vector_4" d="M184 333.84H180.1V302.84H168.53V299.24H195.75V302.84H184.13L184 333.84Z" fill="#2E3656" />
        <path id="Vector_5" d="M237.91 302.82H216.79V314.61H235.68V318.17H216.79V330.26H238.16V333.82H212.89V299.26H237.89L237.91 302.82Z" fill="#2E3656" />
        <path id="Vector_6" d="M279.7 333.84L269.7 320.39H259.81V333.84H255.91V299.26H270.79C272.54 299.239 274.283 299.482 275.96 299.98C277.388 300.431 278.718 301.147 279.88 302.09C280.95 302.961 281.812 304.062 282.4 305.31C282.999 306.635 283.299 308.076 283.28 309.53C283.3 310.861 283.069 312.184 282.6 313.43C282.149 314.532 281.487 315.534 280.65 316.38C279.775 317.246 278.761 317.96 277.65 318.49C276.459 319.061 275.193 319.458 273.89 319.67L284.52 333.8L279.7 333.84ZM277 304.68C275.092 303.351 272.79 302.709 270.47 302.86H259.79V317H270.45C271.655 317.01 272.855 316.842 274.01 316.5C275.031 316.198 275.992 315.721 276.85 315.09C277.63 314.48 278.265 313.705 278.71 312.82C279.153 311.883 279.375 310.857 279.36 309.82C279.413 308.847 279.227 307.876 278.82 306.99C278.414 306.081 277.789 305.287 277 304.68V304.68Z" fill="#2E3656" />
        <path id="Vector_7" d="M300.41 333.84V328.65H305V333.84H300.41Z" fill="#2E3656" />
        <path id="Vector_8" d="M373.21 302.82H352.12V314.61H371V318.17H352.12V330.26H373.55V333.82H348.2V299.26H373.14L373.21 302.82Z" fill="#2E3656" />
        <path id="Vector_9" d="M423.44 333.84H419.25L415.19 324.77H396.37L392.26 333.84H388.26L404 299H407.54L423.44 333.84ZM405.8 303.59L397.86 321.19H413.74L405.8 303.59Z" fill="#2E3656" />
        <path id="Vector_10" d="M442.84 310.07C443.147 310.798 443.649 311.428 444.29 311.89C445.158 312.532 446.119 313.037 447.14 313.39C448.677 313.907 450.248 314.321 451.84 314.63C454.917 315.152 457.835 316.369 460.37 318.19C461.276 318.964 461.994 319.935 462.469 321.028C462.944 322.122 463.163 323.309 463.11 324.5C463.135 325.867 462.851 327.223 462.277 328.465C461.704 329.706 460.857 330.802 459.8 331.67C458.707 332.58 457.442 333.26 456.08 333.67C454.547 334.152 452.947 334.389 451.34 334.37C448.755 334.403 446.187 333.948 443.77 333.03C441.351 332.053 439.129 330.647 437.21 328.88L439.64 326.03C441.26 327.542 443.114 328.781 445.13 329.7C447.146 330.542 449.316 330.95 451.5 330.9C453.497 331.003 455.47 330.428 457.1 329.27C457.775 328.777 458.32 328.127 458.688 327.376C459.055 326.625 459.235 325.796 459.21 324.96C459.23 324.183 459.09 323.411 458.8 322.69C458.498 322 458.023 321.401 457.42 320.95C456.59 320.322 455.661 319.839 454.67 319.52C453.191 318.999 451.677 318.581 450.14 318.27C448.381 317.901 446.653 317.4 444.97 316.77C443.647 316.32 442.412 315.643 441.32 314.77C440.472 314.059 439.789 313.172 439.32 312.17C438.841 310.972 438.609 309.69 438.64 308.4C438.63 307.098 438.91 305.81 439.46 304.63C440.017 303.463 440.831 302.438 441.84 301.63C442.916 300.745 444.147 300.067 445.47 299.63C446.926 299.126 448.459 298.883 450 298.91C452.258 298.845 454.51 299.184 456.65 299.91C458.582 300.659 460.386 301.701 462 303L459.73 306C458.279 304.779 456.633 303.812 454.86 303.14C453.223 302.543 451.493 302.238 449.75 302.24C448.732 302.229 447.72 302.381 446.75 302.69C445.938 302.96 445.175 303.358 444.49 303.87C443.869 304.348 443.363 304.96 443.01 305.66C442.658 306.364 442.48 307.143 442.49 307.93C442.479 308.658 442.597 309.383 442.84 310.07Z" fill="#2E3656" />
        <path id="Vector_11" d="M485.2 299.26V333.84H481.3V299.26H485.2Z" fill="#2E3656" />
        <path id="Vector_12" d="M530.22 302.82H509.1V314.61H528V318.17H509.1V330.26H530.47V333.82H505.2V299.26H530.15L530.22 302.82Z" fill="#2E3656" />
        <path id="Vector_13" d="M572 333.84L562 320.39H552.1V333.84H548.18V299.26H563.06C564.81 299.239 566.553 299.482 568.23 299.98C569.658 300.431 570.988 301.147 572.15 302.09C573.228 302.974 574.09 304.092 574.67 305.36C575.271 306.685 575.571 308.126 575.55 309.58C575.57 310.911 575.339 312.234 574.87 313.48C574.407 314.584 573.727 315.584 572.87 316.42C571.998 317.289 570.983 318.003 569.87 318.53C568.681 319.105 567.414 319.503 566.11 319.71L576.74 333.84H572ZM569.32 304.68C567.412 303.351 565.11 302.709 562.79 302.86H552.1V317H562.76C563.965 317.01 565.165 316.842 566.32 316.5C567.341 316.198 568.302 315.721 569.16 315.09C569.94 314.48 570.575 313.705 571.02 312.82C571.466 311.883 571.691 310.857 571.68 309.82C571.727 308.848 571.538 307.878 571.131 306.994C570.724 306.11 570.109 305.337 569.34 304.74L569.32 304.68Z" fill="#2E3656" />
        <path id="Vector_14" d="M592.72 333.84V328.65H597.26V333.84H592.72Z" fill="#2E3656" />
        <path id="Vector_15" d="M672.74 333.84H668.54L664.48 324.77H645.7L641.6 333.84H637.6L653.37 299H657L672.74 333.84ZM655.09 303.59L647.2 321.19H663L655.09 303.59Z" fill="#2E3656" />
        <path id="Vector_16" d="M716.48 319.06C716.529 321.331 716.191 323.593 715.48 325.75C714.833 327.539 713.81 329.169 712.48 330.53C711.202 331.818 709.655 332.808 707.95 333.43C706.049 334.101 704.046 334.439 702.03 334.43C700.034 334.439 698.051 334.1 696.17 333.43C694.466 332.815 692.92 331.832 691.64 330.55C690.319 329.219 689.311 327.61 688.69 325.84C687.985 323.757 687.646 321.568 687.69 319.37V299.26H691.59V319.12C691.38 322.254 692.387 325.349 694.4 327.76C695.405 328.79 696.62 329.592 697.962 330.11C699.305 330.627 700.744 330.849 702.18 330.76C703.575 330.828 704.969 330.609 706.276 330.117C707.583 329.625 708.776 328.871 709.78 327.9C710.787 326.728 711.552 325.369 712.03 323.9C712.52 322.433 712.71 320.882 712.59 319.34V299.26H716.51L716.48 319.06Z" fill="#2E3656" />
        <path id="Vector_17" d="M748.64 333.84H744.74V302.84H733.13V299.24H760.34V302.84H748.73L748.64 333.84Z" fill="#2E3656" />
        <path id="Vector_18" d="M807.61 323.46C806.772 325.571 805.548 327.508 804 329.17C802.408 330.831 800.506 332.163 798.4 333.09C796.129 334.086 793.67 334.584 791.19 334.55C788.72 334.579 786.271 334.091 784 333.12C781.908 332.208 780.018 330.889 778.44 329.24C776.919 327.557 775.741 325.593 774.97 323.46C774.135 321.287 773.714 318.978 773.73 316.65C773.677 311.993 775.421 307.494 778.6 304.09C780.251 302.358 782.242 300.986 784.448 300.061C786.654 299.135 789.028 298.675 791.42 298.71C793.887 298.681 796.332 299.168 798.6 300.14C800.695 301.047 802.586 302.366 804.16 304.02C805.712 305.658 806.929 307.584 807.74 309.69C809.4 314.075 809.4 318.915 807.74 323.3L807.61 323.46ZM803.82 311.12C803.171 309.442 802.211 307.902 800.99 306.58C799.755 305.288 798.281 304.249 796.65 303.52C794.936 302.743 793.071 302.357 791.19 302.39C789.314 302.363 787.455 302.741 785.74 303.5C784.115 304.182 782.656 305.205 781.46 306.5C780.253 307.821 779.307 309.358 778.67 311.03C777.985 312.803 777.645 314.69 777.67 316.59C777.65 318.496 777.99 320.389 778.67 322.17C779.309 323.85 780.27 325.389 781.5 326.7C782.73 328 784.205 329.043 785.84 329.77C787.562 330.509 789.416 330.89 791.29 330.89C793.164 330.89 795.018 330.509 796.74 329.77C798.362 329.077 799.823 328.056 801.03 326.77C802.231 325.441 803.177 323.902 803.82 322.23C804.5 320.456 804.84 318.57 804.82 316.67C804.849 314.734 804.509 312.81 803.82 311V311.12Z" fill="#2E3656" />
        <path id="Vector_19" d="M843.62 324.36H843.44L830.83 305.88V333.88H827.14V299.26H831.08L843.69 318.13L856.3 299.26H860.3V333.84H856.4V305.84L843.62 324.36Z" fill="#2E3656" />
        <path id="Vector_20" d="M912 333.84H907.81L903.75 324.77H884.94L880.84 333.84H876.84L892.72 299H896.38L912 333.84ZM894.36 303.59L886.47 321.19H902.34L894.36 303.59Z" fill="#2E3656" />
        <path id="Vector_21" d="M937.33 333.84H933.43V302.84H921.8V299.24H949V302.84H937.4L937.33 333.84Z" fill="#2E3656" />
        <path id="Vector_22" d="M991.2 302.82H970V314.61H988.9V318.17H970V330.26H991.37V333.82H966.17V299.26H991.17L991.2 302.82Z" fill="#2E3656" />
        <path id="Vector_23" d="M1038.23 323.46C1037.38 325.542 1036.1 327.42 1034.47 328.97C1032.77 330.551 1030.79 331.79 1028.62 332.62C1026.25 333.528 1023.74 333.982 1021.2 333.96H1009.2V299.26H1021.2C1023.73 299.226 1026.25 299.664 1028.62 300.55C1030.79 301.37 1032.78 302.61 1034.47 304.2C1036.09 305.74 1037.37 307.604 1038.23 309.67C1040 314.031 1040 318.909 1038.23 323.27V323.46ZM1034.51 311.32C1033.86 309.679 1032.88 308.188 1031.63 306.94C1030.33 305.676 1028.79 304.69 1027.1 304.04C1025.22 303.301 1023.2 302.941 1021.18 302.98H1013.1V330.26H1021.22C1023.24 330.305 1025.25 329.966 1027.14 329.26C1028.81 328.645 1030.34 327.684 1031.62 326.44C1032.9 325.196 1033.9 323.697 1034.56 322.04C1035.93 318.573 1035.93 314.717 1034.56 311.25L1034.51 311.32Z" fill="#2E3656" />
        <path id="Vector_24" d="M1054.65 333.84V328.65H1059.19V333.84H1054.65Z" fill="#2E3656" />
        <path id="Vector_25" d="M202.39 204.6V222.6C202.443 232.74 199.97 240.367 194.97 245.48C189.97 250.593 183.167 253.147 174.56 253.14C165.893 253.14 159.09 250.473 154.15 245.14C149.21 239.807 146.747 232.02 146.76 221.78V159.39H127.76V222.67C127.602 229.776 128.699 236.855 131 243.58C132.974 249.255 136.181 254.422 140.39 258.71C144.562 262.799 149.599 265.899 155.13 267.78C161.342 269.857 167.86 270.872 174.41 270.78C181.032 270.882 187.624 269.867 193.91 267.78C199.496 265.88 204.565 262.71 208.72 258.52C212.968 254.122 216.209 248.854 218.22 243.08C220.586 236.171 221.724 228.901 221.58 221.6V204.6H202.39Z" fill="#2E3656" />
        <path id="Vector_26" d="M844.42 204.6H825.3V269.02H844.42V204.6Z" fill="#2E3656" />
        <path id="sec13" d="M844.42 159.39H825.3V183.72H844.42V159.39Z" fill="#2E3656" />
        <path id="Vector_27" d="M565.6 225.47H584.72V159.39H564.19L530.81 211.26L497.42 159.39H476.9V204.6H496.02V190.74L530.33 242.15H530.97L565.6 190.42V225.47Z" fill="#2E3656" />
        <path id="Vector_28" d="M400.56 82.33C404.933 81.1774 409.121 79.4133 413 77.09C416.662 74.8834 419.927 72.0777 422.66 68.79C425.417 65.4487 427.564 61.6471 429 57.56C430.596 52.9063 431.364 48.0089 431.27 43.09C431.344 37.2563 430.217 31.4698 427.96 26.09C425.831 21.1206 422.579 16.712 418.46 13.21C414.023 9.52196 408.892 6.76088 403.37 5.09C396.891 3.10994 390.144 2.14518 383.37 2.23H325.92V37H348.29V22.66H381.35C389.77 22.66 396.43 24.47 401.11 28.1C405.79 31.73 408.11 37.17 408.11 44.32C408.226 47.3449 407.634 50.355 406.38 53.1103C405.127 55.8656 403.247 58.29 400.89 60.19C396.09 64.1433 389.627 66.1167 381.5 66.11H348.29V59H325.92V131.13H348.29V86.13H376.75L408.5 131.13H435.35L400.56 82.33Z" fill="#6388C5" />
        <path id="Vector_29" d="M300.86 159.39H240.22V177.26H275.03V269.02H294.47V177.26H300.86V159.39Z" fill="#2E3656" />
        <path id="Vector_30" d="M293.36 40.71C290.188 32.7615 285.457 25.5282 279.446 19.4365C273.435 13.3448 266.266 8.51783 258.36 5.24002C252.555 2.85137 246.453 1.26348 240.22 0.52002V21.67C243.073 22.3139 245.854 23.2454 248.52 24.45C253.78 26.813 258.508 30.2144 262.42 34.45C266.351 38.6716 269.43 43.6119 271.49 49C275.76 60.4276 275.76 73.0125 271.49 84.44C269.479 89.8233 266.447 94.7673 262.56 99C258.702 103.157 254.033 106.479 248.84 108.76C243.272 111.168 237.271 112.41 231.205 112.41C225.139 112.41 219.138 111.168 213.57 108.76C208.318 106.41 203.592 103.03 199.67 98.82C195.739 94.5607 192.66 89.5878 190.6 84.17C186.3 72.7135 186.3 60.0865 190.6 48.63C192.626 43.254 195.656 38.3128 199.53 34.07C204.646 28.6451 211.088 24.647 218.22 22.47V1.11002C204.701 3.53504 192.254 10.0601 182.57 19.8C176.54 25.8961 171.781 33.1294 168.57 41.08C161.94 57.6307 161.94 76.0993 168.57 92.65C171.735 100.6 176.464 107.834 182.476 113.923C188.488 120.012 195.661 124.833 203.57 128.1C212.192 131.67 221.449 133.45 230.78 133.33C239.798 133.478 248.753 131.802 257.107 128.401C265.46 125 273.04 119.945 279.39 113.54C285.419 107.443 290.177 100.21 293.39 92.26V92.26C300 75.7104 299.989 57.252 293.36 40.71V40.71Z" fill="#6388C5" />
        <path id="Vector_31" d="M449.21 192.21C446.522 185.443 442.5 179.286 437.384 174.104C432.268 168.923 426.162 164.824 419.43 162.05C415.475 160.399 411.35 159.188 407.13 158.44V176.92C413.189 178.719 418.642 182.139 422.9 186.81C426.232 190.445 428.841 194.68 430.59 199.29V199.35C434.22 209.103 434.22 219.837 430.59 229.59C428.879 234.175 426.302 238.388 423 242C419.72 245.538 415.753 248.369 411.34 250.32C406.609 252.37 401.496 253.392 396.34 253.32C391.302 253.362 386.31 252.353 381.683 250.358C377.057 248.362 372.897 245.424 369.47 241.73C366.138 238.11 363.534 233.884 361.8 229.28C358.136 219.529 358.136 208.78 361.8 199.03C363.51 194.448 366.091 190.241 369.4 186.64C372.686 183.105 376.661 180.28 381.08 178.34C382.407 177.772 383.766 177.281 385.15 176.87V158.44C373.721 160.532 363.203 166.062 355 174.29C349.867 179.489 345.822 185.66 343.1 192.44C337.45 206.521 337.45 222.239 343.1 236.32C345.802 243.028 349.79 249.143 354.84 254.32C359.97 259.524 366.091 263.648 372.84 266.45C380.169 269.529 388.051 271.077 396 271C403.673 271.12 411.292 269.69 418.399 266.794C425.506 263.899 431.955 259.598 437.36 254.15C442.512 248.958 446.572 242.787 449.3 236L449.21 236.06C454.843 221.986 454.843 206.284 449.21 192.21V192.21Z" fill="#2E3656" />
        <path id="Vector_32" d="M979.4 192.14C976.714 185.376 972.694 179.221 967.579 174.043C962.465 168.865 956.36 164.77 949.63 162C945.658 160.349 941.516 159.138 937.28 158.39V176.9C938.639 177.31 939.974 177.794 941.28 178.35C945.752 180.351 949.778 183.228 953.12 186.81C956.455 190.437 959.056 194.675 960.78 199.29V199.35C964.43 209.1 964.43 219.84 960.78 229.59C959.081 234.181 956.503 238.396 953.19 242C949.906 245.542 945.931 248.374 941.51 250.32C934.495 253.333 926.726 254.129 919.246 252.601C911.765 251.073 904.931 247.293 899.66 241.77C896.328 238.141 893.727 233.904 892 229.29C888.326 219.528 888.326 208.762 892 199C893.702 194.414 896.284 190.206 899.6 186.61C902.884 183.073 906.86 180.248 911.28 178.31C912.585 177.751 913.92 177.267 915.28 176.86V158.38C903.813 160.458 893.263 166.012 885.06 174.29C879.921 179.487 875.872 185.658 873.15 192.44C867.509 206.523 867.509 222.237 873.15 236.32C875.852 243.031 879.844 249.146 884.9 254.32C890.055 259.548 896.211 263.684 903 266.48C910.341 269.566 918.237 271.111 926.2 271.02C933.874 271.136 941.493 269.704 948.601 266.809C955.71 263.914 962.161 259.615 967.57 254.17C972.728 248.973 976.792 242.795 979.52 236H979.4C985.042 221.924 985.042 206.216 979.4 192.14V192.14Z" fill="#2E3656" />
        <path id="Vector_33" d="M1083.59 204.6V235.25L1024.94 159.39H1007.12V269.02H1026.24V190.99L1086.61 269.02H1102.71V204.6H1083.59Z" fill="#2E3656" />
        <path id="Vector_34" d="M743.19 159.39V177.26H749.59V269.02H769.03V177.26H803.82V159.39H743.19Z" fill="#2E3656" />
        <path id="Vector_35" d="M689.75 204.6H670.37L679.38 225.46H641.62L660.42 181.57L663.96 189.75H683.26L669.63 158.6H651.76L603.5 269.09H623.23L634.57 242.6H686.52L697.52 269.02H717.93L689.75 204.6Z" fill="#2E3656" />
        <path id="Vector_36" d="M89.57 212.02H70.17L75.97 225.46H38.19L57.02 181.57L63.76 197.18H83.08L66.16 158.53H48.28L0 269.02H19.75L31.09 242.53H82.98L94.12 269.02H114.53L89.57 212.02Z" fill="#2E3656" />
        <path id="Vector_37" d="M871.32 59C871.847 55.5401 872.745 52.1471 874 48.8801C876.029 43.5146 879.029 38.5687 882.85 34.2901C886.549 30.1346 891.053 26.7733 896.09 24.41C901.255 22.012 906.886 20.7861 912.58 20.82C916.313 20.7978 920.04 21.1326 923.71 21.82C926.892 22.441 930.007 23.3687 933.01 24.59C935.851 25.7655 938.571 27.2157 941.13 28.92C943.748 30.6856 946.268 32.5917 948.68 34.6301L963 17.49C959.791 14.7446 956.371 12.2568 952.77 10.05C949.243 7.88326 945.516 6.0615 941.64 4.61005C937.492 3.06892 933.206 1.93034 928.84 1.21005C923.77 0.374058 918.638 -0.030724 913.5 4.87813e-05C904.288 -0.0924091 895.158 1.73295 886.69 5.36005C878.804 8.70032 871.664 13.5799 865.687 19.7133C859.709 25.8467 855.016 33.1106 851.88 41.0801C849.591 46.824 848.094 52.8526 847.43 59H871.32Z" fill="#6388C5" />
        <path id="Vector_38" d="M1019.57 110.68V76.25H1084.23V55.84H1019.57V22.66H1057.97V2.19995H997.09V131.09H1093.43V110.68H1019.57Z" fill="#6388C5" />
        <path id="Vector_39" d="M811.33 68.96H788.49L793.23 79.92H748.85L770.94 28.38L779.88 49.05H802.63L781.78 1.30005H760.8L704.1 131.13H727.35L740.54 100H801.51L814.59 131.13H838.47L811.33 68.96Z" fill="#6388C5" />
        <path id="Vector_40" d="M630.8 59.13V78.84H663.8V103.08C659.588 106.203 654.892 108.615 649.9 110.22C644.346 112.038 638.534 112.943 632.69 112.9C626.511 112.994 620.381 111.798 614.69 109.39C609.517 107.122 604.859 103.825 601 99.7C597.037 95.4588 593.975 90.4581 592 85C591.283 83.0016 590.688 80.9611 590.22 78.89H566.08C566.858 83.7689 568.148 88.5521 569.93 93.16C572.954 101.087 577.592 108.299 583.55 114.34C589.508 120.38 596.655 125.117 604.54 128.25C613.27 131.734 622.602 133.461 632 133.33C637.445 133.356 642.879 132.833 648.22 131.77C657.808 129.879 666.963 126.227 675.22 121C678.89 118.659 682.398 116.073 685.72 113.26V59.13H630.8Z" fill="#6388C5" />
        <path id="Vector_41" d="M113.65 79.88H136.12V2.19995H111.99L72.75 63.16L33.54 2.19995H9.41V59.0099H31.86V39.06L72.21 99.45H72.94L113.65 38.6699V79.88Z" fill="#6388C5" />
        <path id="Vector_42" d="M523.51 2.19995H449.25V23.2H490.08V131.13H512.91L513.03 23.2H523.51V2.19995Z" fill="#6388C5" />
        <path id="sec12" d="M1102.71 159.39H1083.59V182.6H1102.71V159.39Z" fill="#2E3656" />
        <path id="sec11" d="M721.18 159.39H714.8V177.26H721.18V159.39Z" fill="#2E3656" />
        <path id="sec10" d="M584.72 246.35H565.6V269.02H584.72V246.35Z" fill="#2E3656" />
        <path id="sec9" d="M496.02 225.47H476.9V269.02H496.02V225.47Z" fill="#2E3656" />
        <path id="sec8" d="M329.26 159.39H322.86V177.26H329.26V159.39Z" fill="#2E3656" />
        <path id="sec7" d="M221.6 159.39H202.39V185H221.6V159.39Z" fill="#2E3656" />
        <path id="sec6" d="M1092.48 2.19995H1077.89V22.66H1092.48V2.19995Z" fill="#6388C5" />
        <path id="sec5" d="M912.75 59.13V78.84H945.75V103.08C941.536 106.2 936.841 108.612 931.85 110.22C926.289 112.038 920.47 112.943 914.62 112.9C908.461 112.988 902.351 111.793 896.68 109.39C891.457 107.149 886.754 103.849 882.87 99.7C878.907 95.4647 875.854 90.4616 873.9 85C873.183 83.0016 872.588 80.9611 872.12 78.89H847.93C848.716 83.7682 850.009 88.5509 851.79 93.16C854.818 101.088 859.459 108.301 865.421 114.341C871.382 120.381 878.533 125.118 886.42 128.25C895.145 131.721 904.47 133.438 913.86 133.3C919.305 133.321 924.739 132.798 930.08 131.74C935.02 130.76 939.856 129.31 944.52 127.41C948.865 125.655 953.042 123.51 957 121C960.744 118.67 964.323 116.084 967.71 113.26V59.13H912.75Z" fill="#6388C5" />
        <path id="sec4" d="M589.44 59C589.963 55.537 590.858 52.1407 592.11 48.87C594.161 43.5092 597.174 38.5681 601 34.29C604.702 30.1288 609.214 26.7669 614.26 24.41C619.422 22.0034 625.055 20.777 630.75 20.82C634.487 20.7977 638.217 21.1326 641.89 21.82C645.068 22.4456 648.179 23.3732 651.18 24.59C654.016 25.7634 656.729 27.2138 659.28 28.92C661.909 30.6709 664.43 32.5776 666.83 34.63L681.21 17.49C677.996 14.7509 674.576 12.2635 670.98 10.05C667.456 7.87934 663.728 6.05739 659.85 4.60998C655.682 3.07759 651.38 1.93927 647 1.20998C641.917 0.371731 636.772 -0.0330584 631.62 -2.17319e-05C622.415 -0.0932091 613.291 1.73223 604.83 5.35998C596.941 8.69805 589.796 13.5767 583.816 19.7102C577.835 25.8436 573.138 33.1087 570 41.08C567.719 46.826 566.226 52.8539 565.56 59H589.44Z" fill="#6388C5" />
        <path id="sec3" d="M553.85 2.19995H543.43V23.2H553.85V2.19995Z" fill="#6388C5" />
        <path id="sec2" d="M136.13 99.8H113.65V131.14H136.13V99.8Z" fill="#6388C5" />
        <path id="sec1" d="M31.86 78.92H9.41V131.13H31.86V78.92Z" fill="#6388C5" />
    </g>
    <defs>
        <clipPath id="clip0_10_11">
            <rect width="1102.71" height="334.55" fill="white" />
        </clipPath>

        <style>
      :root {
        --aniDur: 2s;
      }

      #sec1,
      #sec2,
      #sec3,
      #sec4,
      #sec5,
      #sec6,
      #sec7,
      #sec8,
      #sec9,
      #sec10,
      #sec11,
      #sec12,
      #sec13 {
        clip-path: polygon(0 0, 100% 0, 100% 0, 0 0);
        animation: partIn var(--aniDur) linear forwards;
      }

      @keyframes partIn {
        100% {
          clip-path: polygon(0 0, 100% 0, 100% 100%, 0 100%);
        }
      }

      #sec2 {
        animation-delay: calc(var(--aniDur) * 0.2);
      }

      #sec3 {
        animation-delay: calc(var(--aniDur) * 0.4);
      }

      #sec4 {
        animation-delay: calc(var(--aniDur) * 0.6);
      }

      #sec5 {
        animation-delay: calc(var(--aniDur) * 0.8);
      }

      #sec6 {
        animation-delay: calc(var(--aniDur) * 1);
      }

      #sec7 {
        animation-delay: calc(var(--aniDur) * 1.2);
      }

      #sec8 {
        animation-delay: calc(var(--aniDur) * 1.4);
      }

      #sec9 {
        animation-delay: calc(var(--aniDur) * 1.6);
      }

      #sec10 {
        animation-delay: calc(var(--aniDur) * 1.8);
      }

      #sec11 {
        animation-delay: calc(var(--aniDur) * 2);
      }

      #sec12 {
        animation-delay: calc(var(--aniDur) * 2.2);
      }

      #sec13 {
        animation-delay: calc(var(--aniDur) * 2.4);
      }
        </style>
    </defs>


</svg>